<svg viewBox="0 0 45 45" xmlns="http://www.w3.org/2000/svg"><g id="Symbols" stroke="none" stroke-width="1" fill="none" fill-rule="evenodd"><g id="Header---Default" transform="translate(-15.000000, -10.000000)" fill="#70CF32"><g id="TradeGecko-Logo-Mark"><path d="M40.5421772,30.8082912 C42.2068247,30.8553746 43.3642951,31.9736055 43.1278583,33.3040796 C42.8917904,34.6352894 41.3507097,35.676642 39.6864311,35.6299264 C38.0217836,35.5821073 36.8643132,34.4657156 37.1000122,33.1345058 C37.3368178,31.8021925 38.8771608,30.7623113 40.5421772,30.8082912 M59.0889987,38.6509891 C56.9219692,46.7132869 50.1958786,52.9018123 41.8914527,54.5545135 C39.9306138,54.9440551 37.110709,55.072431 35.1210993,54.8675446 C23.816767,53.7018624 15,44.1748292 15,32.5919431 C15,27.3914336 16.7775175,22.6065823 19.7597189,18.8045972 C14.9502044,28.9988906 18.480526,41.8511895 30.7925732,41.920711 C30.1769524,46.3226418 35.0281476,45.199629 36.3287341,49.7567878 L36.7016476,51.3642448 C35.0941728,53.1835771 36.9830848,54.6656009 38.8727345,53.8824714 C40.1404929,53.359772 40.3677082,51.2296157 38.5625266,50.8529484 C38.0767431,49.8715536 37.8853068,49.2679296 37.6101402,48.0809128 C37.0764054,45.7760329 37.9502255,43.8158182 40.9442303,44.9851788 C42.4089578,45.5582721 43.7054869,46.3053534 45.0927547,46.9586356 C45.1414437,47.6314134 45.5571445,48.2243701 46.2623973,48.4991459 C47.3671213,48.930989 49.0155391,48.5138594 49.6341108,47.447126 C50.2530513,46.3781855 49.6086597,45.064632 48.5035669,44.6327889 C47.8540113,44.3800834 47.1022826,44.4540191 46.468219,44.7755105 C44.979147,44.2881236 43.4045004,43.8875468 41.9814536,43.3310062 C38.7237167,42.057915 39.6853245,40.2720561 42.3610065,40.0598129 C43.8261029,39.9446793 45.3074289,39.7765768 46.6028515,39.4293367 C47.5098686,40.0745265 49.2870172,39.8622833 49.956491,38.706165 C50.5754315,37.6394315 50.1936654,36.4248267 49.0889415,35.9933515 C47.3258094,35.3514722 46.1159614,36.8117935 46.1502651,37.6769511 C41.4414483,40.9025324 25.0970664,38.2404806 25.1782148,34.2722322 C25.4434223,31.1709806 28.835054,28.1392506 33.2875157,25.8189214 C33.9263745,24.0691107 36.6968525,22.9582365 37.9708814,24.017981 C42.5620331,22.4988055 48.5880349,22.3270246 51.3858083,25.2495064 C53.7708317,25.7148229 61.1059038,31.142657 59.0889987,38.6509891 M37.4246056,10 C49.8329242,10 59.8916296,20.0313407 59.8916296,32.4058165 C56.0142144,16.4717615 38.502403,14.1646745 30.5140868,18.2892546 C25.3110029,20.9763194 19.226353,29.5105548 24.1055813,38.7922393 C17.9493732,35.2609838 15.9298862,18.9226735 26.9428223,12.5833341 C30.0072786,10.8173385 33.6382979,10 37.4246056,10"></path></g></g></g></svg>
