<svg xmlns="http://www.w3.org/2000/svg" xmlns:xlink="http://www.w3.org/1999/xlink" version="1.1" id="Layer_1" x="0px" y="0px" viewBox="0 0 32 32" enable-background="new 0 0 32 32" xml:space="preserve">
<path fill-rule="evenodd" clip-rule="evenodd" fill="#70CF32" d="M15.9 0c8.8 0 15.9 7.1 15.9 15.9C29.1 4.6 16.7 3 11 5.9 c-3.7 1.9-8 8-4.5 14.6C2.1 18 0.7 6.3 8.5 1.8C10.7 0.6 13.2 0 15.9 0 M31.3 20.4c-1.5 5.7-6.3 10.1-12.2 11.3 c-1.4 0.3-3.4 0.4-4.8 0.2C6.3 31.1 0 24.3 0 16.1C0 12.4 1.3 9 3.4 6.3C0 13.5 2.5 22.7 11.2 22.7c-0.4 3.1 3 2.3 3.9 5.6l0.3 1.1 c-1.1 1.3 0.2 2.3 1.5 1.8c0.9-0.4 1.1-1.9-0.2-2.2c-0.3-0.7-0.5-1.1-0.7-2c-0.4-1.6 0.2-3 2.4-2.2c1 0.4 2 0.9 2.9 1.4 c0 0.5 0.3 0.9 0.8 1.1c0.8 0.3 2 0 2.4-0.7c0.4-0.8 0-1.7-0.8-2c-0.5-0.2-1-0.1-1.4 0.1c-1.1-0.3-2.2-0.6-3.2-1 c-2.3-0.9-1.6-2.2 0.3-2.3c1-0.1 2.1-0.2 3-0.4c0.6 0.5 1.9 0.3 2.4-0.5c0.4-0.8 0.2-1.6-0.6-1.9c-1.3-0.5-2.1 0.6-2.1 1.2 C18.8 22 7.2 20.1 7.2 17.3c0.2-2.2 2.6-4.4 5.8-6c0.5-1.2 2.4-2 3.3-1.3c3.3-1.1 7.5-1.2 9.5 0.9C27.5 11.2 32.7 15 31.3 20.4 M18.1 14.8c1.2 0 2 0.8 1.8 1.8c-0.2 0.9-1.3 1.7-2.4 1.7c-1.2 0-2-0.8-1.8-1.8C15.9 15.5 16.9 14.8 18.1 14.8"/>
</svg>
